<svg width="250" height="100" xmlns="http://www.w3.org/2000/svg" clip-rule="evenodd">

 <g>
  <title>background</title>
  <rect fill="none" id="canvas_background" height="102" width="252" y="-1" x="-1"/>
 </g>
 <g>
  <title>Layer 1</title>
  <path id="svg_1" fill="#1e1c1a" fill-rule="nonzero" d="m46.23,91.48c-0.048,0.033 -0.111,0.064 -0.108,0.075c0.038,0.127 0.071,0.258 0.135,0.372c0.03,0.052 0.125,0.066 0.19,0.098c0.014,-0.084 0.063,-0.187 0.032,-0.248c-0.059,-0.112 -0.164,-0.2 -0.249,-0.297m33.922,-80.085c-0.042,0.783 0.529,1.194 1.018,1.241c0.615,0.059 1.166,-0.136 1.577,-0.633c0.106,-0.128 0.12,-0.373 0.024,-0.503c-0.431,-0.584 -1.026,-0.885 -1.733,-0.95c-0.456,-0.042 -0.877,0.386 -0.886,0.845m3.798,-0.89c0.103,-0.042 0.208,-0.054 0.268,-0.113c0.739,-0.71 1.038,-1.613 1.118,-2.607c0.007,-0.09 -0.019,-0.183 -0.032,-0.274c-0.108,-0.746 -0.803,-1.018 -1.332,-0.811c-0.296,0.116 -0.594,0.271 -0.835,0.476c-0.719,0.612 -1.24,1.36 -1.427,2.307c0.342,0.301 0.786,0.289 1.155,0.464c0.371,0.176 0.732,0.375 1.085,0.558m-6.314,5.339c0.343,-0.944 0.814,-1.779 1.529,-2.46c0.033,-0.03 0.051,-0.076 0.078,-0.114c0.082,-0.114 -0.053,-0.429 -0.196,-0.459c-0.043,-0.009 -0.084,-0.042 -0.126,-0.043c-0.553,-0.002 -1.109,0.021 -1.637,0.192c-1.3,0.42 -2.225,1.254 -2.714,2.544c-0.032,0.085 -0.039,0.179 -0.056,0.269c-0.04,0.203 0.105,0.47 0.293,0.578c0.427,0.245 0.881,0.242 1.339,0.144c0.498,-0.106 0.964,-0.299 1.49,-0.651m-35.146,71.658c-0.115,0.065 -0.267,0.103 -0.339,0.2c-0.822,1.117 -1.537,2.304 -2.226,3.506c-0.154,0.268 0,0.546 0.339,0.594c1.233,0.176 2.466,0.374 3.718,0.362c0.093,0 0.185,-0.008 0.277,-0.012c0.194,-0.009 0.324,-0.204 0.243,-0.388c-0.632,-1.429 -1.223,-2.877 -2.012,-4.262m42.032,-75.766c-0.049,0.079 -0.089,0.115 -0.092,0.155c-0.082,0.972 -0.631,1.591 -1.481,1.998c-0.198,0.094 -0.445,0.137 -0.554,0.418c0.155,0.083 0.304,0.199 0.472,0.245c1.39,0.38 2.808,0.479 4.237,0.333c0.404,-0.041 0.8,-0.193 1.19,-0.324c0.28,-0.094 0.434,-0.536 0.333,-0.814c-0.097,-0.267 -0.252,-0.489 -0.46,-0.676c-0.488,-0.438 -1.065,-0.715 -1.682,-0.915c-0.647,-0.211 -1.317,-0.299 -1.963,-0.42m-8.011,-3.461c0.006,0.266 0.093,0.615 0.266,0.953c0.234,0.458 0.539,0.859 0.908,1.209c0.246,0.232 0.404,0.492 0.434,0.834c0.018,0.204 0.312,0.338 0.552,0.249c0.115,-0.043 0.261,-0.158 0.285,-0.264c0.191,-0.859 0.727,-1.36 1.558,-1.58c0.044,-0.011 0.105,-0.024 0.123,-0.056c0.066,-0.114 0.146,-0.232 0.167,-0.357c0.054,-0.327 0.007,-0.657 -0.191,-0.925c-0.273,-0.369 -0.566,-0.725 -0.882,-1.058c-0.256,-0.271 -0.59,-0.448 -0.958,-0.524c-0.22,-0.046 -0.459,-0.074 -0.678,-0.037c-0.363,0.061 -0.709,0.189 -1.021,0.403c-0.372,0.255 -0.565,0.594 -0.563,1.153m-20.858,13.747c0.153,-1.397 0.042,-2.501 -0.352,-3.851c-0.57,-1.951 -1.72,-3.463 -3.42,-4.562c-0.78,-0.505 -1.62,-0.889 -2.496,-1.198c-1.537,-0.542 -3.126,-0.849 -4.74,-1.011c-0.639,-0.064 -1.297,-0.036 -1.938,0.032c-2.16,0.23 -4.129,0.999 -5.916,2.224c-2.787,1.912 -4.808,4.446 -6.073,7.58c-0.759,1.878 -1.066,3.825 -0.857,5.847c0.029,0.276 0.057,0.552 0.068,0.829c0.021,0.53 -0.343,0.81 -0.789,0.568c-0.343,-0.185 -0.665,-0.284 -1.052,-0.205c-1.275,0.261 -2.513,0.633 -3.677,1.22c-1.001,0.505 -1.898,1.152 -2.613,2.027c-0.086,0.105 -0.16,0.231 -0.196,0.359c-0.019,0.066 0.05,0.22 0.097,0.229c0.225,0.039 0.459,0.066 0.687,0.053c2.172,-0.121 4.344,-0.242 6.514,-0.384c1.062,-0.07 2.123,-0.165 3.181,-0.279c2.07,-0.224 4.139,-0.459 6.206,-0.71c1.699,-0.205 3.399,-0.411 5.091,-0.669c2.698,-0.412 5.394,-0.84 8.082,-1.311c3.463,-0.607 6.902,-1.336 10.293,-2.273c1.337,-0.37 2.667,-0.772 3.948,-1.314c0.424,-0.179 0.834,-0.395 1.242,-0.609c0.058,-0.031 0.103,-0.153 0.095,-0.226c-0.008,-0.076 -0.073,-0.176 -0.141,-0.208c-0.25,-0.119 -0.505,-0.23 -0.768,-0.316c-2.668,-0.872 -5.378,-1.358 -8.251,-0.874c-0.469,0.599 -1.157,0.988 -1.859,1.336c-0.869,0.432 -1.751,0.846 -2.652,1.203c-3.371,1.337 -6.883,2.145 -10.449,2.74c-1.736,0.289 -3.481,0.49 -5.232,0.661c-1.385,0.135 -2.77,0.176 -4.159,0.2c-0.229,0.004 -0.46,-0.03 -0.688,-0.059c-0.211,-0.028 -0.405,-0.268 -0.411,-0.488c-0.005,-0.218 0.176,-0.478 0.376,-0.522c0.18,-0.04 0.362,-0.078 0.545,-0.092c2.817,-0.208 5.616,-0.558 8.39,-1.098c2.909,-0.567 5.775,-1.304 8.573,-2.287c1.31,-0.459 2.599,-0.977 3.833,-1.616c0.53,-0.275 1.09,-0.511 1.508,-0.946m4.258,65.387c1.017,-0.631 1.879,-1.328 2.732,-2.038c0.306,-0.254 0.457,-0.566 0.48,-0.958c0.117,-2.034 0.239,-4.067 0.359,-6.1c0.022,-0.369 0.037,-0.739 0.064,-1.107c0.012,-0.162 0.226,-0.339 0.398,-0.31c0.127,0.022 0.312,0.076 0.353,0.167c0.128,0.293 0.239,0.604 0.289,0.918c0.172,1.098 0.332,2.197 0.373,3.31c0.014,0.412 0.095,0.821 0.153,1.231c0.005,0.038 0.056,0.098 0.089,0.099c0.084,0.004 0.202,0.013 0.248,-0.036c0.32,-0.334 0.638,-0.671 0.932,-1.028c1.774,-2.157 3.229,-4.513 4.367,-7.065c2.19,-4.911 3.057,-10.074 2.9,-15.421c-0.046,-1.572 -0.153,-3.141 -0.356,-4.707c-0.39,-2.995 -1.066,-5.919 -2.058,-8.767c-1.411,-4.051 -3.378,-7.809 -6.041,-11.188c-1.265,-1.604 -2.661,-3.084 -4.225,-4.401c-0.778,-0.656 -0.793,-0.753 -1.857,-0.443c-1.199,0.35 -2.416,0.639 -3.632,0.923c-4.78,1.115 -9.601,1.997 -14.479,2.57c-2.943,0.345 -5.886,0.664 -8.847,0.817c-0.462,0.024 -0.923,0.067 -1.384,0.107c-1.418,0.122 -1.126,-0.063 -2.051,1.11c-2.777,3.517 -4.903,7.401 -6.476,11.59c-1.99,5.3 -2.981,10.778 -2.9,16.445c0.016,1.16 0.112,2.311 0.206,3.465c0.182,2.269 0.587,4.496 1.188,6.687c0.751,2.737 1.836,5.335 3.345,7.747c0.098,0.157 0.197,0.316 0.318,0.454c0.049,0.056 0.159,0.073 0.243,0.08c0.103,0.008 0.155,-0.067 0.17,-0.178c0.107,-0.779 0.215,-1.558 0.328,-2.336c0.019,-0.137 0.062,-0.27 0.098,-0.404c0.043,-0.156 0.239,-0.312 0.407,-0.329c0.203,-0.022 0.433,0.177 0.466,0.426c0.037,0.274 0.064,0.551 0.076,0.827c0.041,1.018 0.072,2.036 0.113,3.054c0.016,0.37 0.044,0.739 0.076,1.108c0.025,0.284 0.134,0.535 0.324,0.752c0.642,0.732 1.338,1.41 2.094,2.024c0.096,0.078 0.254,0.079 0.423,0.127c0.107,-0.272 0.213,-0.523 0.305,-0.78c0.139,-0.393 0.251,-0.795 0.405,-1.181c0.693,-1.728 1.591,-3.342 2.721,-4.823c0.223,-0.292 0.49,-0.55 0.744,-0.817c0.105,-0.111 0.421,-0.136 0.519,-0.059c0.108,0.085 0.203,0.374 0.158,0.51c-0.058,0.174 -0.12,0.348 -0.192,0.517c-0.452,1.064 -0.921,2.121 -1.358,3.192c-0.541,1.327 -1.057,2.666 -1.582,4c-0.067,0.171 -0.138,0.343 -0.18,0.521c-0.019,0.08 -0.002,0.202 0.05,0.258c0.381,0.414 0.856,0.694 1.383,0.878c0.054,0.018 0.195,-0.061 0.216,-0.122c0.118,-0.349 0.211,-0.706 0.316,-1.06c0.044,-0.147 0.269,-0.358 0.39,-0.35c0.198,0.014 0.342,0.132 0.444,0.293c0.074,0.117 0.146,0.24 0.184,0.371c0.13,0.443 0.242,0.892 0.367,1.337c0.049,0.177 0.097,0.358 0.177,0.521c0.087,0.178 0.249,0.252 0.492,0.195c0.111,-0.325 0.23,-0.672 0.347,-1.019c0.256,-0.752 0.64,-1.436 1.114,-2.069c0.081,-0.108 0.2,-0.188 0.308,-0.272c0.171,-0.132 0.542,0.002 0.567,0.201c0.016,0.137 0.05,0.277 0.034,0.411c-0.044,0.367 -0.122,0.73 -0.164,1.097c-0.084,0.735 -0.156,1.471 -0.224,2.207c-0.017,0.184 0.114,0.375 0.283,0.429c0.22,0.071 0.442,0.139 0.669,0.178c0.072,0.012 0.173,-0.057 0.239,-0.114c0.068,-0.058 0.131,-0.139 0.16,-0.222c0.593,-1.717 1.731,-3.041 3.048,-4.238c0.171,-0.155 0.341,-0.312 0.504,-0.476c0.146,-0.146 0.165,-0.333 0.091,-0.511c-0.124,-0.299 -0.279,-0.585 -0.403,-0.884c-0.07,-0.169 -0.108,-0.351 -0.153,-0.53c-0.04,-0.159 0.087,-0.43 0.232,-0.452c0.129,-0.019 0.295,-0.022 0.394,0.044c0.187,0.125 0.356,0.291 0.503,0.465c0.931,1.095 1.718,2.29 2.427,3.537c0.137,0.242 0.268,0.487 0.42,0.718c0.035,0.053 0.15,0.052 0.268,0.089c0.026,-0.187 0.046,-0.368 0.075,-0.547c0.076,-0.455 0.145,-0.913 0.238,-1.365c0.057,-0.274 0.173,-0.536 0.401,-0.711c0.097,-0.075 0.246,-0.11 0.373,-0.113c0.156,-0.004 0.253,0.134 0.277,0.265c0.112,0.59 0.191,1.186 0.307,1.775c0.079,0.402 0.18,0.804 0.449,1.163c0.308,-0.366 0.264,-0.799 0.305,-1.195c0.105,-1.016 0.286,-2.013 0.559,-2.997c0.738,-2.66 1.975,-5.082 3.458,-7.39c0.097,-0.152 0.238,-0.281 0.376,-0.4c0.105,-0.092 0.24,-0.125 0.383,-0.066c0.167,0.068 0.318,0.284 0.275,0.436c-0.074,0.265 -0.146,0.533 -0.255,0.784c-1.3,2.981 -2.231,6.078 -2.925,9.249c-0.247,1.131 -0.439,2.272 -0.485,3.433c-0.026,0.67 0.125,0.794 0.824,0.681c0.551,-0.088 1.077,-0.255 1.609,-0.419c0.19,-0.282 0.384,-0.541 0.548,-0.818c1.81,-3.071 4.223,-5.614 6.927,-7.899c0.21,-0.177 0.442,-0.337 0.687,-0.459c0.095,-0.048 0.264,0.008 0.38,0.06c0.152,0.067 0.231,0.364 0.16,0.486c-0.092,0.159 -0.178,0.326 -0.291,0.47c-1.658,2.112 -3.321,4.22 -4.982,6.33c-0.114,0.145 -0.227,0.291 -0.334,0.441c-0.023,0.034 -0.038,0.116 -0.02,0.131c0.059,0.05 0.151,0.127 0.202,0.11c1.147,-0.384 2.2,-0.965 3.242,-1.568c0.267,-0.155 0.361,-0.398 0.339,-0.704c-0.02,-0.273 -0.06,-0.549 0.057,-0.818c0.059,-0.137 0.345,-0.286 0.465,-0.201c0.26,0.186 0.51,0.386 0.847,0.644m-31.535,-60.603c0.047,-0.169 0.107,-0.298 0.115,-0.43c0.016,-0.23 0.003,-0.463 -0.005,-0.694c-0.067,-2.024 0.348,-3.959 1.115,-5.819c1.433,-3.477 3.696,-6.283 6.853,-8.349c2.096,-1.371 4.4,-2.142 6.895,-2.333c0.46,-0.035 0.928,-0.048 1.387,-0.008c1.801,0.159 3.582,0.433 5.303,1.02c0.966,0.331 1.901,0.73 2.777,1.255c2.656,1.59 4.255,3.92 4.849,6.951c0.062,0.316 0.133,0.631 0.206,0.945c0.026,0.115 0.256,0.149 0.345,0.052c0.125,-0.136 0.248,-0.274 0.369,-0.414c1.133,-1.307 2.464,-2.369 3.959,-3.236c2.256,-1.307 4.656,-2.265 7.142,-3.024c1.508,-0.46 3.045,-0.795 4.6,-1.036c0.639,-0.099 1.29,-0.118 1.935,-0.179c0.184,-0.017 0.37,-0.041 0.545,-0.092c0.065,-0.019 0.114,-0.121 0.151,-0.195c0.014,-0.028 -0.016,-0.098 -0.047,-0.125c-0.279,-0.243 -0.573,-0.47 -0.842,-0.723c-0.445,-0.42 -0.76,-0.927 -0.964,-1.506c-0.395,-1.123 -0.058,-2.293 0.92,-2.947c1.442,-0.964 3.129,-0.969 4.424,0.362c0.257,0.264 0.485,0.556 0.739,0.85c0.127,-0.094 0.255,-0.157 0.337,-0.257c0.205,-0.25 0.372,-0.532 0.585,-0.774c0.37,-0.423 0.816,-0.741 1.354,-0.938c0.595,-0.218 1.171,-0.22 1.759,0.017c1.198,0.483 1.55,1.445 1.511,2.408c-0.031,0.753 -0.267,1.454 -0.67,2.094c-0.196,0.312 -0.414,0.611 -0.62,0.918c-0.112,0.168 0.004,0.361 0.225,0.373c0.416,0.023 0.835,0.019 1.247,0.071c0.937,0.12 1.793,0.449 2.516,1.076c0.549,0.477 0.868,1.074 0.904,1.809c0.047,0.956 -0.43,1.72 -1.32,2.075c-0.298,0.12 -0.615,0.232 -0.931,0.265c-2.072,0.218 -4.057,-0.108 -5.941,-1.007c-0.435,-0.207 -0.749,-0.533 -0.941,-1.025c-0.198,-0.066 -0.421,-0.122 -0.629,-0.213c-0.45,-0.197 -0.615,-0.068 -0.799,0.258c-0.419,0.742 -0.607,1.554 -0.613,2.396c-0.009,1.244 0.579,1.637 1.811,1.096c0.563,-0.248 0.997,-0.661 1.4,-1.116c0.182,-0.204 0.375,-0.402 0.587,-0.574c0.114,-0.093 0.271,-0.036 0.374,0.064c0.06,0.058 0.103,0.153 0.114,0.237c0.012,0.087 -0.008,0.186 -0.041,0.268c-0.341,0.834 -0.881,1.521 -1.583,2.074c-0.64,0.505 -1.372,0.75 -2.195,0.723c-0.821,-0.027 -1.408,-0.414 -1.769,-1.137c-0.143,-0.286 -0.219,-0.604 -0.347,-0.899c-0.028,-0.066 -0.156,-0.141 -0.22,-0.128c-0.132,0.026 -0.25,0.117 -0.379,0.169c-0.342,0.137 -0.68,0.293 -1.034,0.394c-0.263,0.074 -0.548,0.108 -0.821,0.098c-1.41,-0.048 -2.656,-1.124 -1.966,-3.001c0.194,-0.528 0.574,-0.946 0.872,-1.412c0.03,-0.047 -0.015,-0.153 -0.047,-0.223c-0.014,-0.029 -0.081,-0.047 -0.124,-0.048c-0.092,-0.003 -0.186,0 -0.277,0.014c-0.137,0.022 -0.273,0.051 -0.407,0.086c-4.536,1.169 -8.689,3.147 -12.464,5.918c-0.855,0.628 -1.664,1.308 -2.334,2.046c-0.017,0.18 0.041,0.238 0.162,0.225c0.551,-0.059 1.101,-0.155 1.654,-0.181c2.77,-0.13 5.433,0.397 8.024,1.342c0.258,0.095 0.517,0.217 0.738,0.377c0.698,0.504 0.903,1.289 0.396,2.071c-0.23,0.354 -0.535,0.646 -0.891,0.866c-0.511,0.315 -1.031,0.62 -1.569,0.886c-1.121,0.556 -2.297,0.979 -3.481,1.381c-0.349,0.118 -0.693,0.254 -1.037,0.386c-0.112,0.043 -0.168,0.274 -0.089,0.353c0.129,0.131 0.247,0.274 0.385,0.394c4.393,3.802 7.549,8.488 9.798,13.807c1.594,3.771 2.636,7.694 3.151,11.76c0.268,2.116 0.45,4.238 0.421,6.369c-0.07,5.247 -1.072,10.297 -3.298,15.074c-1.719,3.689 -4.03,6.962 -6.953,9.798c-0.299,0.289 -0.597,0.58 -0.895,0.871c-0.032,0.032 -0.057,0.073 -0.111,0.142c-0.191,0.723 -0.385,1.485 -0.594,2.242c-0.112,0.401 -0.237,0.799 -0.382,1.188c-0.062,0.168 -0.169,0.335 -0.297,0.458c-0.086,0.082 -0.258,0.137 -0.368,0.11c-0.114,-0.029 -0.247,-0.156 -0.285,-0.269c-0.057,-0.168 -0.061,-0.364 -0.047,-0.546c0.029,-0.368 0.099,-0.734 0.122,-1.103c0.008,-0.116 -0.046,-0.28 -0.131,-0.348c-0.122,-0.099 -0.26,0.022 -0.371,0.098c-0.494,0.341 -0.984,0.688 -1.517,1.063c-0.095,0.52 -0.187,1.062 -0.295,1.602c-0.065,0.327 -0.303,0.63 -0.476,0.611c-0.255,-0.028 -0.396,-0.215 -0.505,-0.426c-0.084,-0.165 -0.141,-0.352 -0.258,-0.488c-0.076,-0.088 -0.256,-0.167 -0.356,-0.137c-0.263,0.079 -0.511,0.211 -0.757,0.338c-2.192,1.124 -4.48,1.99 -6.881,2.547c-0.36,0.083 -0.72,0.171 -1.084,0.227c-0.376,0.058 -0.712,0.171 -0.984,0.454c-0.139,0.145 -0.348,0.171 -0.513,0.076c-0.342,-0.195 -0.691,-0.208 -1.07,-0.161c-1.847,0.226 -3.695,0.216 -5.541,-0.01c-0.872,-0.108 -1.742,-0.235 -2.612,-0.355c-0.29,-0.04 -0.531,0.023 -0.758,0.235c-0.196,0.183 -0.459,0.137 -0.613,-0.038c-0.06,-0.068 -0.116,-0.145 -0.154,-0.227c-0.129,-0.281 -0.382,-0.38 -0.648,-0.475c-0.299,-0.107 -0.537,0.018 -0.772,0.177c-0.184,0.125 -0.357,0.041 -0.516,-0.052c-0.077,-0.045 -0.147,-0.121 -0.19,-0.199c-0.187,-0.346 -0.473,-0.554 -0.844,-0.673c-0.306,-0.097 -0.604,-0.222 -0.932,-0.345c-0.159,0.116 -0.298,0.229 -0.449,0.323c-0.217,0.136 -0.474,0.073 -0.59,-0.145c-0.086,-0.163 -0.158,-0.334 -0.228,-0.505c-0.093,-0.224 -0.252,-0.382 -0.461,-0.499c-0.847,-0.473 -1.693,-0.949 -2.528,-1.417c-0.218,0.039 -0.313,0.187 -0.402,0.352c-0.108,0.201 -0.208,0.415 -0.358,0.583c-0.074,0.083 -0.266,0.123 -0.379,0.092c-0.114,-0.031 -0.229,-0.16 -0.284,-0.275c-0.055,-0.118 -0.063,-0.273 -0.047,-0.406c0.039,-0.321 0.114,-0.637 0.156,-0.958c0.025,-0.189 -0.033,-0.374 -0.183,-0.5c-0.425,-0.357 -0.858,-0.704 -1.292,-1.051c-0.027,-0.021 -0.098,-0.02 -0.126,0.002c-0.066,0.051 -0.165,0.118 -0.168,0.183c-0.025,0.611 0.07,1.185 0.43,1.713c0.338,0.496 0.622,1.03 0.912,1.557c0.085,0.157 0.121,0.344 0.163,0.521c0.048,0.207 -0.184,0.477 -0.401,0.46c-0.182,-0.015 -0.361,-0.065 -0.534,-0.097c-0.105,0.11 -0.192,0.22 -0.298,0.308c-0.185,0.155 -0.486,0.119 -0.607,-0.075c-0.121,-0.195 -0.255,-0.39 -0.332,-0.604c-0.221,-0.608 -0.434,-1.221 -0.613,-1.842c-0.132,-0.456 -0.332,-0.857 -0.658,-1.203c-0.762,-0.808 -1.486,-1.654 -2.278,-2.432c-2.345,-2.303 -4.698,-4.599 -7.082,-6.861c-1.646,-1.563 -3.367,-3.042 -5.225,-4.353c-0.149,-0.105 -0.297,-0.23 -0.4,-0.376c-0.07,-0.099 -0.086,-0.254 -0.083,-0.382c0.004,-0.152 0.261,-0.305 0.422,-0.278c0.136,0.022 0.283,0.03 0.401,0.091c0.371,0.19 0.744,0.38 1.091,0.609c1.043,0.688 2.095,1.363 3.105,2.098c3.42,2.489 6.557,5.288 9.264,8.551c0.116,0.14 0.259,0.259 0.394,0.382c0.028,0.025 0.111,0.04 0.115,0.032c0.041,-0.079 0.091,-0.162 0.098,-0.247c0.008,-0.088 -0.003,-0.195 -0.049,-0.266c-0.127,-0.193 -0.273,-0.374 -0.418,-0.554c-2.504,-3.109 -4.227,-6.62 -5.328,-10.442c-0.836,-2.901 -1.313,-5.864 -1.459,-8.884c-0.103,-2.13 -0.103,-4.259 0.059,-6.384c0.223,-2.915 0.75,-5.779 1.534,-8.595c1.62,-5.819 4.217,-11.152 7.912,-15.94c0.168,-0.217 0.311,-0.455 0.442,-0.696c0.025,-0.047 -0.053,-0.219 -0.097,-0.225c-0.274,-0.034 -0.552,-0.049 -0.828,-0.048c-1.898,0.003 -3.796,0.014 -5.695,0.017c-0.369,0.001 -0.741,-0.009 -1.109,-0.042c-0.604,-0.052 -0.973,-0.633 -0.783,-1.21c0.044,-0.131 0.093,-0.262 0.158,-0.384c0.913,-1.719 2.194,-3.08 3.914,-4.017c1.19,-0.648 2.459,-1.068 3.778,-1.346c0.584,-0.122 1.17,-0.234 1.753,-0.35"/>
  <path id="svg_2" fill="#1e1c1a" fill-rule="nonzero" d="m65.763,91.782c-0.106,-0.092 -0.258,-0.162 -0.294,-0.27c-0.056,-0.167 -0.074,-0.37 -0.035,-0.541c0.113,-0.494 0.241,-0.988 0.403,-1.468c0.521,-1.538 1.225,-2.992 2.031,-4.398c1.456,-2.539 3.198,-4.866 5.187,-7.009c2.268,-2.445 4.717,-4.697 7.303,-6.8c0.214,-0.175 0.436,-0.344 0.673,-0.484c0.109,-0.064 0.263,-0.068 0.397,-0.07c0.227,-0.004 0.426,0.314 0.317,0.498c-0.093,0.157 -0.181,0.324 -0.305,0.454c-0.48,0.5 -0.979,0.983 -1.462,1.481c-3.387,3.486 -6.532,7.182 -9.493,11.034c-0.563,0.733 -1.091,1.494 -1.606,2.261c-0.954,1.424 -1.797,2.909 -2.418,4.513c-0.082,0.213 -0.186,0.426 -0.322,0.607c-0.072,0.096 -0.235,0.124 -0.376,0.192"/>
  <path id="svg_3" fill="#1e1c1a" fill-rule="nonzero" d="m84.72,78.722c-0.033,0.09 -0.05,0.242 -0.133,0.336c-0.12,0.134 -0.278,0.245 -0.438,0.33c-2.692,1.441 -5.249,3.104 -7.833,4.722c-1.959,1.226 -3.902,2.475 -5.644,4.009c-0.134,0.118 -0.31,0.193 -0.474,0.274c-0.143,0.071 -0.265,-0.009 -0.378,-0.09c-0.125,-0.089 -0.172,-0.224 -0.14,-0.362c0.03,-0.131 0.08,-0.271 0.162,-0.373c0.348,-0.431 0.692,-0.867 1.071,-1.271c1.977,-2.106 4.23,-3.857 6.787,-5.208c1.923,-1.015 3.909,-1.887 5.962,-2.604c0.214,-0.075 0.443,-0.111 0.667,-0.151c0.131,-0.023 0.371,0.202 0.391,0.388"/>
  <path id="svg_4" fill="#1e1c1a" fill-rule="nonzero" d="m64.661,63.812c0.02,0.886 -0.098,1.753 -0.348,2.602c-0.708,2.403 -2.51,3.888 -5.008,4.133c-1.443,0.142 -2.865,0.006 -4.26,-0.365c-2.262,-0.601 -4.319,-1.623 -6.127,-3.122c-0.968,-0.803 -1.801,-1.724 -2.411,-2.835c-0.568,-1.036 -0.863,-2.133 -0.783,-3.324c0.101,-1.525 0.852,-2.488 2.311,-2.932c1.441,-0.438 2.835,-0.26 4.184,0.354c0.605,0.276 1.072,0.706 1.358,1.327c0.328,0.713 0.674,1.418 1.023,2.122c0.453,0.913 0.977,1.782 1.626,2.572c0.444,0.541 0.948,1.016 1.552,1.369c1.142,0.667 2.348,0.795 3.601,0.354c0.857,-0.303 1.398,-0.923 1.543,-1.805c0.223,-1.36 -0.013,-2.666 -0.647,-3.895c-0.02,-0.037 -0.069,-0.058 -0.098,-0.092c-0.07,-0.078 -0.276,-0.087 -0.389,-0.03c-0.096,0.048 -0.12,0.11 -0.111,0.223c0.045,0.557 -0.038,0.707 -0.402,0.88c-0.708,0.335 -1.36,0.198 -1.951,-0.251c-0.585,-0.445 -0.886,-1.05 -0.859,-1.802c0.019,-0.566 0.295,-0.975 0.797,-1.2c1.156,-0.518 2.253,-0.378 3.269,0.373c0.647,0.479 1.107,1.113 1.44,1.835c0.351,0.761 0.555,1.567 0.632,2.402c0.035,0.367 0.039,0.738 0.058,1.107"/>
  <path id="svg_5" fill="#1e1c1a" fill-rule="nonzero" d="m24.526,64.912c0.043,1.781 0.793,3.201 2.208,4.273c0.8,0.606 1.723,0.891 2.712,0.941c0.656,0.033 1.282,-0.142 1.866,-0.449c0.579,-0.304 1.079,-0.712 1.537,-1.175c0.654,-0.661 1.199,-1.407 1.697,-2.188c0.874,-1.368 1.57,-2.828 2.218,-4.312c0.167,-0.381 0.322,-0.768 0.478,-1.153c0.468,-1.156 1.37,-1.833 2.501,-2.243c0.302,-0.109 0.624,-0.186 0.943,-0.223c1.42,-0.161 2.866,0.431 3.315,2.27c0.21,0.864 0.172,1.743 -0.105,2.603c-0.243,0.756 -0.618,1.442 -1.073,2.088c-0.508,0.722 -1.101,1.369 -1.738,1.978c-0.904,0.865 -1.887,1.633 -2.914,2.347c-1.598,1.11 -3.283,2.074 -5.019,2.948c-1.038,0.523 -2.122,0.923 -3.276,1.089c-2.178,0.311 -3.907,-0.416 -5.118,-2.283c-0.639,-0.985 -1.004,-2.084 -1.209,-3.226c-0.261,-1.465 -0.324,-2.941 -0.05,-4.417c0.119,-0.641 0.313,-1.255 0.626,-1.828c0.661,-1.209 1.865,-1.53 2.807,-1.278c0.4,0.107 0.799,0.225 1.189,0.364c1.024,0.366 1.526,1.154 1.693,2.182c0.107,0.661 -0.02,1.291 -0.351,1.873c-0.269,0.475 -0.669,0.751 -1.23,0.774c-0.451,0.018 -0.793,-0.358 -0.699,-0.811c0.037,-0.173 0.121,-0.349 0.226,-0.492c0.076,-0.104 0.234,-0.144 0.335,-0.236c0.312,-0.281 0.409,-0.646 0.246,-1c-0.115,-0.248 -0.245,-0.501 -0.418,-0.71c-0.33,-0.399 -0.758,-0.668 -1.253,-0.836c-0.597,-0.202 -1.117,-0.038 -1.437,0.486c-0.496,0.811 -0.729,1.693 -0.707,2.644"/>
  <path id="svg_6" fill="#1e1c1a" fill-rule="nonzero" d="m43.27,70.085c0.014,0.158 0.012,0.299 0.041,0.434c0.242,1.125 0.744,1.271 1.689,0.77c0.403,-0.214 0.604,-0.587 0.607,-1.027c0.005,-0.616 -0.182,-1.182 -0.582,-1.669c-0.344,-0.419 -0.84,-0.427 -1.185,-0.025c-0.381,0.445 -0.504,0.977 -0.57,1.517m0.745,3.793c-1.007,0.024 -1.967,-0.619 -2.382,-1.725c-0.606,-1.613 -0.276,-3.094 0.887,-4.346c1.008,-1.084 2.621,-1.11 3.725,-0.116c0.825,0.743 1.268,1.689 1.362,2.782c0.07,0.815 -0.197,1.548 -0.739,2.161c-0.743,0.841 -1.684,1.254 -2.853,1.244"/>
  <path id="svg_7" fill="#1e1c1a" fill-rule="nonzero" d="m37.924,52.821c-0.026,0.178 -0.028,0.416 -0.103,0.629c-0.059,0.166 -0.203,0.304 -0.402,0.346c-0.195,0.041 -0.368,-0.012 -0.52,-0.125c-0.072,-0.054 -0.13,-0.134 -0.177,-0.212c-0.617,-1.033 -1.239,-2.063 -1.841,-3.105c-0.185,-0.318 -0.341,-0.66 -0.458,-1.008c-0.071,-0.211 -0.066,-0.456 -0.053,-0.683c0.019,-0.306 0.33,-0.608 0.623,-0.667c0.487,-0.097 0.918,0.012 1.299,0.325c0.441,0.361 0.739,0.827 0.96,1.343c0.425,0.99 0.621,2.031 0.672,3.157"/>
  <path id="svg_8" fill="#1e1c1a" fill-rule="nonzero" d="m52.932,51.971c0.05,-1.181 0.327,-2.29 0.851,-3.336c0.229,-0.459 0.525,-0.867 0.928,-1.191c0.381,-0.307 0.812,-0.414 1.295,-0.337c0.402,0.065 0.763,0.503 0.695,0.894c-0.047,0.27 -0.112,0.545 -0.225,0.793c-0.153,0.334 -0.343,0.653 -0.546,0.961c-0.583,0.885 -1.179,1.763 -1.776,2.64c-0.075,0.111 -0.175,0.214 -0.285,0.291c-0.157,0.112 -0.349,0.129 -0.528,0.07c-0.181,-0.059 -0.314,-0.192 -0.355,-0.386c-0.029,-0.135 -0.038,-0.273 -0.054,-0.399"/>
  <text xml:space="preserve" text-anchor="start" font-family="'Simonetta', serif" font-size="38" id="svg_10" y="65.781738" x="77.321799" stroke-width="0" stroke="#000" fill="#000000">GoReality</text>
 </g>
</svg>